<svg width="20" height="25" viewBox="0 0 20 25" fill="none" xmlns="http://www.w3.org/2000/svg">
<path d="M10.7322 0.488281H1.9517C1.1434 0.488281 0.488281 1.1434 0.488281 1.9517V23.0249C0.488281 23.8332 1.1434 24.4883 1.9517 24.4883H10.7322C11.5405 24.4883 12.1956 23.8332 12.1956 23.0249V1.9517C12.1956 1.1434 11.5405 0.488281 10.7322 0.488281Z" fill="#EEFAFF"/>
<path d="M13.6583 5.17188C16.8862 5.17188 19.512 7.79773 19.512 11.0255C19.512 14.2533 16.8862 16.8792 13.6583 16.8792C13.1351 16.8792 8.59503 16.8792 7.80469 16.8792L9.34664 14.9514C8.39835 13.9109 7.80469 12.5411 7.80469 11.0255C7.80469 7.80319 10.4253 5.17188 13.6583 5.17188Z" fill="#FFDA8F"/>
<circle cx="15.1226" cy="8.09718" r="0.487805" fill="black"/>
<circle cx="12.1948" cy="8.09718" r="0.487805" fill="black"/>
<circle cx="6.34132" cy="21.5601" r="0.487805" fill="black"/>
<path d="M16.5856 10.5371C16.3162 10.5371 16.0978 10.7555 16.0978 11.0249C16.0978 12.3698 15.0037 13.4639 13.6588 13.4639C12.3139 13.4639 11.2198 12.3698 11.2198 11.0249C11.2198 10.7555 11.0013 10.5371 10.7319 10.5371C10.4626 10.5371 10.2441 10.7555 10.2441 11.0249C10.2441 12.9077 11.7759 14.4395 13.6588 14.4395C15.5416 14.4395 17.0734 12.9077 17.0734 11.0249C17.0734 10.7555 16.855 10.5371 16.5856 10.5371Z" fill="black"/>
<path d="M4.39062 3.41554C4.39062 3.68491 4.60906 3.90334 4.87843 3.90334H7.80526C8.07463 3.90334 8.29306 3.68491 8.29306 3.41554C8.29306 3.14617 8.07463 2.92773 7.80526 2.92773H4.87843C4.60906 2.92773 4.39062 3.14617 4.39062 3.41554Z" fill="black"/>
<path fill-rule="evenodd" clip-rule="evenodd" d="M12.6829 4.75824C13.005 4.70839 13.3313 4.68293 13.6585 4.68293C17.1553 4.68293 20 7.52766 20 11.0244C20 14.5211 17.1553 17.3659 13.6585 17.3659H12.6829V23.0244C12.6829 24.1003 11.8076 24.9756 10.7317 24.9756H1.95122C0.875317 24.9756 0 24.1003 0 23.0244V1.95122C0 0.875317 0.875317 0 1.95122 0H4.14634C4.41571 0 4.63415 0.218439 4.63415 0.487805C4.63415 0.757171 4.41571 0.97561 4.14634 0.97561H1.95122C1.41327 0.97561 0.975609 1.41327 0.975609 1.95122V23.0244C0.975609 23.5623 1.41327 24 1.95122 24H10.7318C11.2697 24 11.7074 23.5623 11.7074 23.0244V17.3659H7.80493C7.61741 17.3659 7.44649 17.2584 7.36527 17.0894C7.28405 16.9204 7.30688 16.7198 7.42395 16.5734L8.7141 14.9604C7.81034 13.8321 7.31707 12.4498 7.31707 11.0244C7.31707 8.2598 9.10415 5.83102 11.7073 4.99029V1.95122C11.7073 1.41327 11.2697 0.97561 10.7317 0.97561H8.53659C8.26722 0.97561 8.04878 0.757171 8.04878 0.487805C8.04878 0.218439 8.26722 0 8.53659 0H10.7317C11.8076 0 12.6829 0.875317 12.6829 1.95122V4.75824ZM8.8197 16.3902H13.6585C16.6173 16.3902 19.0244 13.9831 19.0244 11.0244C19.0244 8.06566 16.6173 5.65854 13.6585 5.65854C10.6953 5.65854 8.29268 8.06142 8.29268 11.0244C8.29268 12.3432 8.79512 13.6207 9.70736 14.6217C9.86902 14.799 9.87766 15.0676 9.7278 15.255L8.8197 16.3902Z" fill="black"/>
<circle cx="6.34132" cy="0.487805" r="0.487805" fill="black"/>
</svg>
