<svg width="36" height="36" viewBox="0 0 36 36" fill="none" xmlns="http://www.w3.org/2000/svg">
<path d="M7.05938 0.00976562C3.18157 0.00976562 0.0078125 3.18345 0.0078125 7.06134V28.9436C0.0078125 32.8214 3.1815 35.994 7.05938 35.994H28.9417C32.8195 35.994 35.9921 32.8215 35.9921 28.9436V7.06134C35.9921 3.18353 32.8195 0.00976562 28.9417 0.00976562H7.05938ZM8.83296 5.94789C10.6923 5.94789 11.8376 7.16851 11.8729 8.77299C11.8729 10.3421 10.6922 11.597 8.797 11.597H8.76211C6.93817 11.597 5.75928 10.3421 5.75928 8.77299C5.75928 7.16855 6.97385 5.94789 8.83292 5.94789H8.83296ZM24.8558 13.4471C28.4317 13.4471 31.1123 15.7842 31.1123 20.8067V30.1829H25.678V21.4354C25.678 19.2372 24.8915 17.7375 22.9248 17.7375C21.4235 17.7375 20.5286 18.7483 20.1357 19.7248C19.9922 20.0742 19.9569 20.5621 19.9569 21.0508V30.1829H14.5226C14.5226 30.1829 14.5939 15.3648 14.5226 13.8305H19.958V16.1462C20.6802 15.032 21.9719 13.447 24.8558 13.447V13.4471ZM6.07982 13.8317H11.5141V30.183H6.07982V13.8317Z" fill="#0E76A8"/>
</svg>
