<svg width="164" height="48" viewBox="0 0 164 48" fill="none" xmlns="http://www.w3.org/2000/svg">
<path d="M15.1619 47.5425C14.1651 47.5425 14.6897 47.5425 13.9028 47.5425C12.8535 47.5425 11.8042 47.5425 10.5451 47.5425C7.15248 47.5425 4.54681 46.6092 2.72809 44.7425C0.909364 42.8758 1.64858e-06 40.1329 1.64858e-06 36.5139C1.64858e-06 36.5139 -2.06073e-06 13.5423 1.64858e-06 12.3995C5.3579e-06 11.2566 1.67053 8.39945 4.19706 8.39945C6.72359 8.39945 8.18426 8.39945 8.18426 8.39945V17.0281H15.1619V23.8852H8.18426V36.3996C8.18426 37.6948 8.48155 38.7044 9.07614 39.4282C9.67072 40.1139 10.5276 40.4568 11.6468 40.4568C12.906 40.4568 13.9028 40.4568 15.1619 40.4568V47.5425Z" fill="url(#paint0_linear)"/>
<path d="M30.3821 20.8567C31.3614 19.3709 32.6729 18.2471 34.3168 17.4852C35.9956 16.7233 37.9193 16.3424 40.0877 16.3424V24.571C39.1784 24.4948 38.5663 24.4567 38.2515 24.4567C35.9082 24.4567 34.072 25.1805 32.7429 26.6281C31.4138 28.0376 30.7493 30.171 30.7493 33.0281V47.5425H22.565V16.7995H30.3821V20.8567Z" fill="url(#paint1_linear)"/>
<path d="M46.2657 16.7995H54.45V47.5425H46.2657V16.7995Z" fill="url(#paint2_linear)"/>
<path d="M80.0406 16.3424C82.6637 16.3424 85.042 17.009 87.1755 18.3424C89.344 19.6376 91.0403 21.4852 92.2645 23.8852C93.4886 26.2472 94.1007 29.0091 94.1007 32.171C94.1007 35.3329 93.4886 38.1139 92.2645 40.5139C91.0403 42.8758 89.344 44.7234 87.1755 46.0568C85.042 47.352 82.6637 47.9996 80.0406 47.9996C76.1583 47.9996 73.2028 46.6663 71.1743 43.9996V47.5425H63.3572C63.3572 47.5425 63.3572 12.5138 63.3572 11.0852C63.3572 9.781 64.2674 8.28517 64.5297 7.99945C64.7921 7.71373 65.8413 6.28516 67.4152 6.28516C68.9891 6.28516 71.5415 6.28516 71.5415 6.28516V20.0567C73.6051 17.5805 76.4381 16.3424 80.0406 16.3424ZM78.624 40.6853C80.7226 40.6853 82.4364 39.9234 83.7654 38.3996C85.1295 36.8377 85.8115 34.7615 85.8115 32.171C85.8115 29.5805 85.1295 27.5234 83.7654 25.9995C82.4364 24.4376 80.7226 23.6567 78.624 23.6567C76.5255 23.6567 74.7942 24.4376 73.4302 25.9995C72.1011 27.5234 71.4366 29.5805 71.4366 32.171C71.4366 34.7615 72.1011 36.8377 73.4302 38.3996C74.7942 39.9234 76.5255 40.6853 78.624 40.6853Z" fill="url(#paint3_linear)"/>
<path d="M115.109 40.8568C116.577 40.8568 117.872 40.6282 118.991 40.171C120.145 39.6758 121.212 38.9139 122.191 37.8853L126.545 43.0282C123.887 46.3425 120.005 47.9996 114.899 47.9996C111.716 47.9996 108.9 47.333 106.452 45.9996C104.004 44.6282 102.115 42.7425 100.786 40.3425C99.457 37.9425 98.7924 35.2186 98.7924 32.171C98.7924 29.1615 99.4395 26.4567 100.734 24.0567C102.063 21.6186 103.864 19.7328 106.137 18.3995C108.446 17.0281 111.034 16.3424 113.902 16.3424C116.595 16.3424 119.043 16.9709 121.247 18.2281C123.45 19.4471 125.199 21.2376 126.493 23.5995C127.822 25.9233 128.487 28.6853 128.487 31.8853L107.606 36.2853C108.201 37.8091 109.128 38.952 110.387 39.7139C111.681 40.4758 113.255 40.8568 115.109 40.8568ZM113.902 23.0852C111.838 23.0852 110.159 23.8091 108.865 25.2567C107.571 26.7043 106.889 28.7043 106.819 31.2567L120.565 28.3424C120.18 26.7424 119.393 25.4662 118.204 24.5138C117.015 23.5614 115.581 23.0852 113.902 23.0852Z" fill="url(#paint4_linear)"/>
<path d="M147.684 40.7996C146.215 40.7996 144.921 40.571 143.802 40.1138C142.647 39.6186 141.581 38.8567 140.601 37.8281L136.247 42.971C138.905 46.2853 142.787 47.9425 147.894 47.9425C151.077 47.9425 153.892 47.2758 156.34 45.9424C158.789 44.571 160.677 42.6853 162.006 40.2853C163.335 37.8853 164 35.1614 164 32.1138C164 29.1043 163.353 26.3995 162.059 23.9995C160.73 21.5614 158.929 19.6756 156.655 18.3423C154.347 16.9709 151.759 16.2852 148.891 16.2852C146.197 16.2852 143.749 16.9137 141.546 18.1709C139.342 19.3899 137.594 21.1804 136.299 23.5423C134.97 25.8662 134.306 28.6281 134.306 31.8281L155.186 36.2281C154.592 37.7519 153.665 38.8948 152.406 39.6567C151.112 40.4186 149.538 40.7996 147.684 40.7996ZM148.891 23.028C150.954 23.028 152.633 23.7519 153.927 25.1995C155.221 26.6471 155.903 28.6471 155.973 31.1995L142.228 28.2852C142.612 26.6852 143.399 25.409 144.589 24.4566C145.778 23.5042 147.212 23.028 148.891 23.028Z" fill="#B654E4"/>
<path d="M147.947 10.5782C147.947 10.5782 141.127 1.72105 130.372 2.00677C119.617 2.29248 113.846 10.5782 113.846 10.5782" stroke="url(#paint5_linear)" stroke-width="4" stroke-linecap="round"/>
<path d="M54.6426 6.5C54.6426 8.98528 52.6279 11 50.1426 11C47.6573 11 45.6426 8.98528 45.6426 6.5C45.6426 4.01472 47.6573 2 50.1426 2C52.6279 2 54.6426 4.01472 54.6426 6.5Z" fill="#B654E4"/>
<defs>
<linearGradient id="paint0_linear" x1="-8.60385" y1="26.9709" x2="136.981" y2="26.9709" gradientUnits="userSpaceOnUse">
<stop stop-color="#0091FF"/>
<stop offset="1" stop-color="#6561F5"/>
</linearGradient>
<linearGradient id="paint1_linear" x1="-8.60385" y1="26.9709" x2="136.981" y2="26.9709" gradientUnits="userSpaceOnUse">
<stop stop-color="#0091FF"/>
<stop offset="1" stop-color="#6561F5"/>
</linearGradient>
<linearGradient id="paint2_linear" x1="-8.60385" y1="26.9709" x2="136.981" y2="26.9709" gradientUnits="userSpaceOnUse">
<stop stop-color="#0091FF"/>
<stop offset="1" stop-color="#6561F5"/>
</linearGradient>
<linearGradient id="paint3_linear" x1="-8.60385" y1="26.9709" x2="136.981" y2="26.9709" gradientUnits="userSpaceOnUse">
<stop stop-color="#0091FF"/>
<stop offset="1" stop-color="#6561F5"/>
</linearGradient>
<linearGradient id="paint4_linear" x1="-8.60385" y1="26.9709" x2="136.981" y2="26.9709" gradientUnits="userSpaceOnUse">
<stop stop-color="#0091FF"/>
<stop offset="1" stop-color="#6561F5"/>
</linearGradient>
<linearGradient id="paint5_linear" x1="151.357" y1="10.5783" x2="109.911" y2="10.5783" gradientUnits="userSpaceOnUse">
<stop stop-color="#B654E4"/>
<stop offset="0.501688" stop-color="#6561F5"/>
<stop offset="1" stop-color="#0091FF"/>
</linearGradient>
</defs>
</svg>
