<?xml version="1.0" encoding="utf-8"?>
<!-- Generator: Adobe Illustrator 24.3.0, SVG Export Plug-In . SVG Version: 6.00 Build 0)  -->
<svg version="1.1" id="Layer_1" xmlns="http://www.w3.org/2000/svg" xmlns:xlink="http://www.w3.org/1999/xlink" x="0px" y="0px"
	 viewBox="0 0 106 30" style="enable-background:new 0 0 106 30;" xml:space="preserve">
<style type="text/css">
	.st0{fill:none;stroke:#979797;}
	.st1{fill:#25C27A;fill-opacity:0.7;}
	.st2{fill:#FFFFFF;stroke:#979797;}
</style>
<path class="st0" d="M15,14c0,0-2.2-5.5-7.2-6C2.9,7.6-1,11-1,11"/>
<g>
	<path class="st1" d="M14.2,4.3C15.3,2.9,17.1,2,18.9,2h80.6c3.3,0,6,2.7,6,6v7.5V23c0,3.3-2.7,6-6,6H18.9c-1.9,0-3.6-0.9-4.7-2.3
		l-5.8-7.5c-1.7-2.2-1.7-5.2,0-7.4L14.2,4.3z"/>
</g>
<circle class="st2" cx="14.5" cy="15.5" r="2"/>
<path class="st0" d="M15,14c0,0-2.2,5.5-7.2,6c-5,0.5-8.8-3-8.8-3"/>
</svg>
