<?xml version="1.0" encoding="utf-8"?>
<!-- Generator: Adobe Illustrator 24.1.0, SVG Export Plug-In . SVG Version: 6.00 Build 0)  -->
<svg version="1.1" id="Layer_1" xmlns="http://www.w3.org/2000/svg" xmlns:xlink="http://www.w3.org/1999/xlink" x="0px" y="0px"
	 viewBox="0 0 43.7 41.2" style="enable-background:new 0 0 43.7 41.2;" xml:space="preserve">
<style type="text/css">
	.st0{fill:url(#SVGID_1_);stroke:#F8F8F8;stroke-width:2;stroke-miterlimit:10;}
	.st1{fill:url(#SVGID_2_);stroke:#F8F8F8;stroke-width:2;stroke-miterlimit:10;}
	.st2{fill:url(#SVGID_3_);stroke:#F8F8F8;stroke-width:2;stroke-miterlimit:10;}
</style>
<linearGradient id="SVGID_1_" gradientUnits="userSpaceOnUse" x1="5.7248" y1="27.2837" x2="22.2248" y2="3.7837" gradientTransform="matrix(1 0 0 -1 0 39.659)">
	<stop  offset="0" style="stop-color:#25C27A"/>
	<stop  offset="1" style="stop-color:#0AC4BA"/>
</linearGradient>
<path class="st0" d="M11.7,12.3l-2.5,5.2l-5.7,0.8c-1,0.2-1.4,1.4-0.7,2.1l4.1,4l-1,5.7c-0.2,1,0.9,1.8,1.8,1.3l5.1-2.7l5.1,2.7
	c0.9,0.5,2-0.3,1.8-1.3l-1-5.7l4.1-4c0.7-0.7,0.4-2-0.7-2.1l-5.7-0.8l-2.6-5.2C13.5,11.4,12.2,11.4,11.7,12.3z"/>
<linearGradient id="SVGID_2_" gradientUnits="userSpaceOnUse" x1="17.043" y1="39.5072" x2="33.543" y2="16.0072" gradientTransform="matrix(1 0 0 -1 0 39.659)">
	<stop  offset="0" style="stop-color:#25C27A"/>
	<stop  offset="1" style="stop-color:#0AC4BA"/>
</linearGradient>
<path class="st1" d="M22.9,1.7l-2,4.2l-4.6,0.7c-0.8,0.1-1.1,1.1-0.5,1.7l3.3,3.2L18.3,16c-0.1,0.8,0.8,1.4,1.5,1.1l4.1-2.2l4.1,2.2
	c0.7,0.4,1.6-0.2,1.5-1.1l-0.8-4.5l3.3-3.2c0.6-0.6,0.3-1.6-0.5-1.7l-4.6-0.7l-2.1-4.2C24.4,1,23.3,1,22.9,1.7z"/>
<linearGradient id="SVGID_3_" gradientUnits="userSpaceOnUse" x1="21.8769" y1="21.3905" x2="38.3769" y2="-2.1095" gradientTransform="matrix(1 0 0 -1 0 39.659)">
	<stop  offset="0" style="stop-color:#25C27A"/>
	<stop  offset="1" style="stop-color:#0AC4BA"/>
</linearGradient>
<path class="st2" d="M27.5,16l-3,6.2l-6.9,1c-1.2,0.2-1.7,1.7-0.8,2.6l4.9,4.8l-1.2,6.8c-0.2,1.2,1.1,2.2,2.2,1.6l6.1-3.2l6.1,3.2
	c1.1,0.6,2.4-0.4,2.2-1.6L36,30.6l4.9-4.8c0.9-0.9,0.4-2.4-0.8-2.6l-6.8-1L30.2,16C29.6,14.9,28.1,14.9,27.5,16z"/>
</svg>
